/* XPM */
static char * top_right_inactive_xpm[] = {
"2 26 4 1",
" 	c None",
".	c #080D15",
"+	c #080D15",
"@	c #080D15",
". ",
"+.",
"@.",
"@.",
"@.",
"@.",
"@.",
"@.",
"@.",
"@.",
"@.",
"@.",
"@.",
"@.",
"@.",
"@.",
"@.",
"@.",
"@.",
"@.",
"@.",
"@.",
"@.",
"@.",
"@.",
"@."};
